/* XPM */
static char *result[] = {
/* columns rows colors chars-per-pixel */
"64 64 12 1 ",
"  c black",
". c #040404",
"X c #127C00",
"o c #615200",
"O c gray28",
"+ c #BB0C00",
"@ c #912D04",
"# c #FF2700",
"$ c #26FF00",
"% c #E6E403",
"& c #CFBC7A",
"* c #007DBB",
/* pixels */
"$$$$$$$$$$$$$$$$$$$$$$$$$$$$$$$$$$$$$$$$$$$$$$$$$$$$$$$$$$$$$$$$",
"$$$$$$$$$$$$$$$$$$$$$$$$$$$$$$$$$$$$$$$$$$$$$$$$$$$$$$$$$$$$$$$$",
"$$$$$$$$$$$$$$$$$$$$$$$$$$$$$$$$$$$$$$$$$$$$$$$$$$$$$$$$$$$$$$$$",
"$$$$$$$$$$$$$$$$$$$$$$$$$$$$$$$$$$$$$$$$$$$$$$$$$$$$$$$$$$$$$$$$",
"$$$$$$$$$$$$$$$$$$$$$$$$$$$$$$$$$$$$$$$$$$$$$$$$$$$$$$$$$$$$$$$$",
"$$$$$$$$$$$$$$$$$$$$#####################$$$$$$$$$$$$$$$$$$$$$$$",
"$$$$$$$$............#####################...............$$$$$$$$",
"$$$$$$$$............#####################...............$$$$$$$$",
"$$$$$$$$..ooooooo##############################ooooooo..$$$$$$$$",
"$$$$$$$$..ooooooo##############################ooooooo..$$$$$$$$",
"$$$$$$$$..ooooooo##############################ooooooo..$$$$$$$$",
"$$$$$$$$..ooooooo@@@@@@@@@&&&&&&&&&   &&&ooooooooooooo..$$$$$$$$",
"$$$$$$$$..ooooooo@@@@@@@@@&&&&&&&&&   &&&ooooooooooooo..$$$$$$$$",
"$$$$$$$$..ooooooo@@@@@@@@@&&&&&&&&&   &&&ooooooooooooo..$$$$$$$$",
"$$$$$$$$..oooo@@@&&&@@@&&&&&&&&&&&&   &&&&&&&&&ooooooo..$$$$$$$$",
"$$$$$$$$..oooo@@@&&&@@@&&&&&&&&&&&&   &&&&&&&&&ooooooo..$$$$$$$$",
"XXXXXXXX..OOOO@@@&&&@@@&&&&&&&&&&&&   &&&&&&&&&OOOOOOO..XXXXXXXX",
"XXXXXXXX..OOOO@@@&&&@@@@@@&&&&&&&&&&&&   &&&&&&&&&OOOO..XXXXXXXX",
"XXXXXXXX..oooo@@@&&&@@@@@@&&&&&&&&&&&&   &&&&&&&&&oooo..XXXXXXXX",
"XXXXXXXX..oooo@@@&&&@@@@@@&&&&&&&&&&&&   &&&&&&&&&oooo..XXXXXXXX",
"XXXXXXXX  oooo@@@@@@&&&&&&&&&&&&&&&            ooooooo..XXXXXXXX",
"XXXXXXXX  oooo@@@@@@&&&&&&&&&&&&&&&            ooooooo..XXXXXXXX",
"XXXXXXXX  oooo@@@@@@&&&&&&&&&&&&&&&            ooooooo..XXXXXXXX",
"XXXXXXXX  oooooooooo&&&&&&&&&&&&&&&&&&&&&&&&oooooooooo..XXXXXXXX",
"XXXXXXXX  OOOOOOOOOO&&&&&&&&&&&&&&&&&&&&&&&&OOOOOOOOOO..XXXXXXXX",
"XXXXXXXX  OOOOOOOOOO&&&&&&&&&&&&&&&&&&&&&&&&OOOOOOOOOO..XXXXXXXX",
"XXXXXXXX  ooooooo######***############oooooooooooooooo..XXXXXXXX",
"XXXXXXXX  ooooooo######***############oooooooooooooooo..XXXXXXXX",
"XXXXXXXX  ooooooo######***############oooooooooooooooo..XXXXXXXX",
"XXXXXXXX  oooo#########***######***#########oooooooooo..XXXXXXXX",
"XXXXXXXX  oooo#########***######***#########oooooooooo..XXXXXXXX",
"XXXXXXXX  oooo#########***######***#########oooooooooo..XXXXXXXX",
"$$$$$$$$  O############************############OOOOOOO..$$$$$$$$",
"$$$$$$$$  O############************############OOOOOOO..$$$$$$$$",
"$$$$$$$$..o############************############ooooooo..$$$$$$$$",
"$$$$$$$$..o#########***%%%******%%%***###&&&&&&ooooooo..$$$$$$$$",
"$$$$$$$$..o&&&&&&###***%%%******%%%***###&&&&&&ooooooo..$$$$$$$$",
"$$$$$$$$..o&&&&&&###***%%%******%%%***###&&&&&&ooooooo..$$$$$$$$",
"$$$$$$$$..o&&&&&&&&&******************&&&&&&&&&ooooooo..$$$$$$$$",
"$$$$$$$$..o&&&&&&&&&******************&&&&&&&&&ooooooo..$$$$$$$$",
"$$$$$$$$..O&&&&&&&&&******************&&&&&&&&&OOOOOOO..$$$$$$$$",
"$$$$$$$$..O&&&&&&************************&&&&&&OOOOOOO..$$$$$$$$",
"$$$$$$$$..o&&&&&&************************&&&&&&ooooooo..$$$$$$$$",
"$$$$$$$$..o&&&&&&************************&&&&&&ooooooo..$$$$$$$$",
"$$$$$$$$..o&&&&&&************************ooooooooooooo..$$$$$$$$",
"$$$$$$$$..ooooooo************************ooooooooooooo..$$$$$$$$",
"$$$$$$$$..ooooooo************************ooooooooooooo..$$$$$$$$",
"$$$$$$$$..ooooooo*********oooooo*********ooooooooooooo..$$$$$$$$",
"XXXXXXXX..OOOOOOO*********OOOOOO*********OOOOOOOOOOOOO..XXXXXXXX",
"XXXXXXXX..OOOOOOO*********OOOOOO*********OOOOOOOOOOOOO..XXXXXXXX",
"XXXXXXXX..oooo+++++++++oooooooooooo+++++++++oooooooooo..XXXXXXXX",
"XXXXXXXX..oooo+++++++++oooooooooooo+++++++++oooooooooo..XXXXXXXX",
"XXXXXXXX..oooo+++++++++oooooooooooo+++++++++oooooooooo..XXXXXXXX",
"XXXXXXXX..o++++++++++++oooooooooooo++++++++++++ooooooo..XXXXXXXX",
"XXXXXXXX..o++++++++++++oooooooooooo++++++++++++ooooooo..XXXXXXXX",
"XXXXXXXX..o++++++++++++oooooooooooo++++++++++++ooooooo..XXXXXXXX",
"XXXXXXXX........                    ....................XXXXXXXX",
"XXXXXXXX........                    ....................XXXXXXXX",
"XXXXXXXXXXXX        XXXXXXXXXXXXXXXXXXXXXXXX        XXXXXXXXXXXX",
"XXXXXXXXXXXX        XXXXXXXXXXXXXXXXXXXXXXXX        XXXXXXXXXXXX",
"XXXXXXXXXXXXXXXXXXXXXXXXXXXXXXXXXXXXXXXXXXXXXXXXXXXXXXXXXXXXXXXX",
"XXXXXXXXXXXXXXXXXXXXXXXXXXXXXXXXXXXXXXXXXXXXXXXXXXXXXXXXXXXXXXXX",
"XXXXXXXXXXXXXXXXXXXXXXXXXXXXXXXXXXXXXXXXXXXXXXXXXXXXXXXXXXXXXXXX",
"XXXXXXXXXXXXXXXXXXXXXXXXXXXXXXXXXXXXXXXXXXXXXXXXXXXXXXXXXXXXXXXX"
};
