/* XPM */
static char *bf41646e1593402cba574ca140680971d5sBTftbVtRIUEvz[] = {
/* columns rows colors chars-per-pixel */
"64 64 7 1 ",
"  c black",
". c #040404",
"X c #127C00",
"o c #4F4300",
"O c #615200",
"+ c gray28",
"@ c #26FF00",
/* pixels */
"@@@@@@@@@@@@@@@@@@@@@@@@@@@@@@@@@@@@@@@@@@@@@@@@@@@@@@@@@@@@@@@@",
"@@@@@@@@@@@@@@@@@@@@@@@@@@@@@@@@@@@@@@@@@@@@@@@@@@@@@@@@@@@@@@@@",
"@@@@@@@@@@@@@@@@@@@@@@@@@@@@@@@@@@@@@@@@@@@@@@@@@@@@@@@@@@@@@@@@",
"@@@@@@@@@@@@@@@@@@@@@@@@@@@@@@@@@@@@@@@@@@@@@@@@@@@@@@@@@@@@@@@@",
"@@@@@@@@@@@@@@@@@@@@@@@@@@@@@@@@@@@@@@@@@@@@@@@@@@@@@@@@@@@@@@@@",
"@@@@@@@@@@@@@@@@@@@@@@@@@@@@@@@@@@@@@@@@@@@@@@@@@@@@@@@@@@@@@@@@",
"@@@@@@@@................................................@@@@@@@@",
"@@@@@@@@................................................@@@@@@@@",
"@@@@@@@@..OOOOOOOOOOOOOOOOOOOOOOOOOOOOOOOOOOOOOOOOOOOO..@@@@@@@@",
"@@@@@@@@..OOOOOOOOOOOOOOOOOOOOOOOOOOOOOOOOOOOOOOOOOOOO..@@@@@@@@",
"@@@@@@@@..OOOOOOOOOOOOOOOOOOOO....OOOOOOOOOOOOOOOOOOOO..@@@@@@@@",
"@@@@@@@@..OOOOOOOOOOOOOOOOOOOO....OOOOOOOOOOOOOOOOOOOO..@@@@@@@@",
"@@@@@@@@..OOOOOOOOOOOOOOOOOO..oooo..OOOOOOOOOOOOOOOOOO..@@@@@@@@",
"@@@@@@@@..OOOOOOOOOOOOOOOOOO..oooo..OOOOOOOOOOOOOOOOOO..@@@@@@@@",
"@@@@@@@@..OOOOOOOOOOOOOOOO..ooOOOOOO..OOOOOOOOOOOOOOOO..@@@@@@@@",
"@@@@@@@@..OOOOOOOOOOOOOOOO..ooOOOOOO..OOOOOOOOOOOOOOOO..@@@@@@@@",
"XXXXXXXX..++++++++++++++++..++++++++..++++++++++++++++..XXXXXXXX",
"XXXXXXXX..++++++++++++++++..++++++++..++++++++++++++++..XXXXXXXX",
"XXXXXXXX..OOOOOOOOOOOOOOOOOO..OOOO..ooOOOOOOOOOOOOOOOO..XXXXXXXX",
"XXXXXXXX..OOOOOOOOOOOOOOOOOO..OOOO..ooOOOOOOOOOOOOOOOO..XXXXXXXX",
"XXXXXXXX  OOOOOOOOOOOOOOOOOOOO....ooOOOOOOOOOOOOOOOOOO..XXXXXXXX",
"XXXXXXXX  OOOOOOOOOOOOOOOOOOOO....ooOOOOOOOOOOOOOOOOOO..XXXXXXXX",
"XXXXXXXX  OOOOOOOOOOOOOOOOOOOOOOOOOOOOOOOOOOOOOOOOOOOO..XXXXXXXX",
"XXXXXXXX  OOOOOOOOOOOOOOOOOOOOOOOOOOOOOOOOOOOOOOOOOOOO..XXXXXXXX",
"XXXXXXXX  ++++++++++++++++++++++++++++++++++++++++++++..XXXXXXXX",
"XXXXXXXX  ++++++++++++++++++++++++++++++++++++++++++++..XXXXXXXX",
"XXXXXXXX  OOOOOOOOOOOOOOOOOOOOOOOOOOOOOOOOOOOOOOOOOOOO..XXXXXXXX",
"XXXXXXXX  OOOOOOOOOOOOOOOOOOOOOOOOOOOOOOOOOOOOOOOOOOOO..XXXXXXXX",
"XXXXXXXX  OOOOOOOOOOOOOOOOOOOOOOOOOOOOOOOOOOOOOOOOOOOO..XXXXXXXX",
"XXXXXXXX  OOOOOOOOOOOOOOOOOOOOOOOOOOOOOOOOOOOOOOOOOOOO..XXXXXXXX",
"XXXXXXXX  OOOOOOOOOOOOOOOOOOOOOOOOOOOOOOOOOOOOOOOOOOOO..XXXXXXXX",
"XXXXXXXX  OOOOOOOOOOOOOOOOOOOOOOOOOOOOOOOOOOOOOOOOOOOO..XXXXXXXX",
"@@@@@@@@  ++++++++++++++++++++++++++++++++++++++++++++..@@@@@@@@",
"@@@@@@@@  ++++++++++++++++++++++++++++++++++++++++++++..@@@@@@@@",
"@@@@@@@@..OOOOOOOOOOOOOOOOOOOOOOOOOOOOOOOOOOOOOOOOOOOO..@@@@@@@@",
"@@@@@@@@..OOOOOOOOOOOOOOOOOOOOOOOOOOOOOOOOOOOOOOOOOOOO..@@@@@@@@",
"@@@@@@@@..OOOOOOOOOOOOOOOOOOOOOOOOOOOOOOOOOOOOOOOOOOOO..@@@@@@@@",
"@@@@@@@@..OOOOOOOOOOOOOOOOOOOOOOOOOOOOOOOOOOOOOOOOOOOO..@@@@@@@@",
"@@@@@@@@..OOOOOOOOOOOOOOOOOOOOOOOOOOOOOOOOOOOOOOOOOOOO..@@@@@@@@",
"@@@@@@@@..OOOOOOOOOOOOOOOOOOOOOOOOOOOOOOOOOOOOOOOOOOOO..@@@@@@@@",
"@@@@@@@@..++++++++++++++++++++++++++++++++++++++++++++..@@@@@@@@",
"@@@@@@@@..++++++++++++++++++++++++++++++++++++++++++++..@@@@@@@@",
"@@@@@@@@..OOOOOOOOOOOOOOOOOOOOOOOOOOOOOOOOOOOOOOOOOOOO..@@@@@@@@",
"@@@@@@@@..OOOOOOOOOOOOOOOOOOOOOOOOOOOOOOOOOOOOOOOOOOOO..@@@@@@@@",
"@@@@@@@@..OOOOOOOOOOOOOOOOOOOOOOOOOOOOOOOOOOOOOOOOOOOO..@@@@@@@@",
"@@@@@@@@..OOOOOOOOOOOOOOOOOOOOOOOOOOOOOOOOOOOOOOOOOOOO..@@@@@@@@",
"@@@@@@@@..OOOOOOOOOOOOOOOOOOOOOOOOOOOOOOOOOOOOOOOOOOOO..@@@@@@@@",
"@@@@@@@@..OOOOOOOOOOOOOOOOOOOOOOOOOOOOOOOOOOOOOOOOOOOO..@@@@@@@@",
"XXXXXXXX..++++++++++++++++++++++++++++++++++++++++++++..XXXXXXXX",
"XXXXXXXX..++++++++++++++++++++++++++++++++++++++++++++..XXXXXXXX",
"XXXXXXXX..OOOOOOOOOOOOOOOOOOOOOOOOOOOOOOOOOOOOOOOOOOOO..XXXXXXXX",
"XXXXXXXX..OOOOOOOOOOOOOOOOOOOOOOOOOOOOOOOOOOOOOOOOOOOO..XXXXXXXX",
"XXXXXXXX..OOOOOOOOOOOOOOOOOOOOOOOOOOOOOOOOOOOOOOOOOOOO..XXXXXXXX",
"XXXXXXXX..OOOOOOOOOOOOOOOOOOOOOOOOOOOOOOOOOOOOOOOOOOOO..XXXXXXXX",
"XXXXXXXX..OOOOOOOOOOOOOOOOOOOOOOOOOOOOOOOOOOOOOOOOOOOO..XXXXXXXX",
"XXXXXXXX..OOOOOOOOOOOOOOOOOOOOOOOOOOOOOOOOOOOOOOOOOOOO..XXXXXXXX",
"XXXXXXXX........                    ....................XXXXXXXX",
"XXXXXXXX........                    ....................XXXXXXXX",
"XXXXXXXXXXXX        XXXXXXXXXXXXXXXXXXXXXXXX        XXXXXXXXXXXX",
"XXXXXXXXXXXX        XXXXXXXXXXXXXXXXXXXXXXXX        XXXXXXXXXXXX",
"XXXXXXXXXXXXXXXXXXXXXXXXXXXXXXXXXXXXXXXXXXXXXXXXXXXXXXXXXXXXXXXX",
"XXXXXXXXXXXXXXXXXXXXXXXXXXXXXXXXXXXXXXXXXXXXXXXXXXXXXXXXXXXXXXXX",
"XXXXXXXXXXXXXXXXXXXXXXXXXXXXXXXXXXXXXXXXXXXXXXXXXXXXXXXXXXXXXXXX",
"XXXXXXXXXXXXXXXXXXXXXXXXXXXXXXXXXXXXXXXXXXXXXXXXXXXXXXXXXXXXXXXX"
};
