/* XPM */
static char *_244b8cdfeda4afeefa00920adf34483LHqU0fkzcIEZIgBA[] = {
/* columns rows colors chars-per-pixel */
"64 64 3 1 ",
"  c black",
". c #127C00",
"X c #26FF00",
/* pixels */
"XXXXXXXXXXXXXXXXXXXXXXXXXXXXXXXXXXXXXXXXXXXXXXXXXXXXXXXXXXXXXXXX",
"XXXXXXXXXXXXXXXXXXXXXXXXXXXXXXXXXXXXXXXXXXXXXXXXXXXXXXXXXXXXXXXX",
"XXXXXXXXXXXXXXXXXXXXXXXXXXXXXXXXXXXXXXXXXX    XXXXXXXXXXXXXXXXXX",
"XXXXXXXXXXXXXXXXXXXXXXXXXXXXXXXXXXXXXXXXXX    XXXXXXXXXXXXXXXXXX",
"XXXXXXXXXXXXXXXXXXXXXXXXXXXXXXXXXXXXXXXXXXXX  XXXXXXXXXXXXXXXXXX",
"XXXXXXXXXXXXXXXXXXXXXXXXXXXXXXXXXXXXXXXXXXXX  XXXXXXXXXXXXXXXXXX",
"XXXXXXXXXXXXXXXXXXXXXXXXXXXXXXXXXXXXXXXXXXXX  XXXXXXXXXXXXXXXXXX",
"XXXXXXXXXXXXXXXXXXXXXXXXXXXXXXXXXXXXXXXXXXXX  XXXXXXXXXXXXXXXXXX",
"XXXXXXXX  XXXXXXXXXXXXXXXXXXXXXXXXXXXXXXXXXX  XXXXXXXXXXXXXXXXXX",
"XXXXXXXX  XXXXXXXXXXXXXXXXXXXXXXXXXXXXXXXXXX  XXXXXXXXXXXXXXXXXX",
"XXXXXXXX    XXXXXXXXXXXXXX  XXXXXXXXXXXXXXXX  XXXXXXXXXXXXXXXXXX",
"XXXXXXXX    XXXXXXXXXXXXXX  XXXXXXXXXXXXXXXX  XXXXXXXXXXXXXXXXXX",
"XXXXXXXXXX  XXXXXXXXXXXXXX    XXXXXXXXXXXXXXXXXXXXXXXXXXXXXXXXXX",
"XXXXXXXXXX  XXXXXXXXXXXXXX    XXXXXXXXXXXXXXXXXXXXXXXXXXXXXXXXXX",
"XXXXXXXXXX  XXXXXXXXXXXXXXXX  XXXXXXXXXXXXXXXXXXXX  XXXXXXXXXXXX",
"XXXXXXXXXX  XXXXXXXXXXXXXXXX  XXXXXXXXXXXXXXXXXXXX  XXXXXXXXXXXX",
"......      ................  ....................  ............",
"......      ................  ....................  ............",
"......  ....................  ....................  ............",
"......  ....................  ....................  ............",
"..........................    ....................  ............",
"..........................    ....................  ............",
"..........................  ....................  ..............",
"..........................  ....................  ..............",
"..........................  ....................................",
"..........................  ....................................",
"................................................................",
"................................................................",
"............  ........................  ........................",
"............  ........................  ........................",
"............  ........................  ........................",
"............  ........................  ........................",
"XXXXXXXXXXXXXX  XXXXXXXXXXXXXXXXXXXXXX  XXXXXXXXXXXXXXXXXXXXXXXX",
"XXXXXXXXXXXXXX  XXXXXXXXXXXXXXXXXXXXXX  XXXXXXXXXXXXXXXXXXXXXXXX",
"XXXXXXXXXXXX    XXXXXXXXXXXXXXXXXXXXXX  XXXXXXXXXXXXXXXXXXXXXXXX",
"XXXXXXXXXXXX    XXXXXXXXXXXXXXXXXXXXXX  XXXXXXXXXXXXXXXXXXXXXXXX",
"XXXXXXXXXXXX  XXXXXXXXXXXXXXXXXXXXXXXX  XXXXXXXXXXXXXXXXXXXXXXXX",
"XXXXXXXXXXXX  XXXXXXXXXXXXXXXXXXXXXXXX  XXXXXXXXXXXXXXXXXXXXXXXX",
"XXXXXXXXXX    XXXXXXXXXXXXXXXXXXXXXX    XXXXXXXXXXXXXXXXXXXXXXXX",
"XXXXXXXXXX    XXXXXXXXXXXXXXXXXXXXXX    XXXXXXXXXXXXXXXXXXXXXXXX",
"XXXXXXXXXX  XXXXXXXX    XXXXXXXXXXXX  XXXXXXXXXXXXXXXXXXXXXXXXXX",
"XXXXXXXXXX  XXXXXXXX    XXXXXXXXXXXX  XXXXXXXXXXXXXXXXXXXXXXXXXX",
"XXXXXXXXXXXXXXXXXX    XXXXXXXXXXXXXXXXXXXXXX  XXXXXXXXXXXXXXXXXX",
"XXXXXXXXXXXXXXXXXX    XXXXXXXXXXXXXXXXXXXXXX  XXXXXXXXXXXXXXXXXX",
"XXXXXXXXXXXXXXXXXX  XXXXXXXXXXXXXXXXXXXXXXXX  XXXXXXXXXXXXXXXXXX",
"XXXXXXXXXXXXXXXXXX  XXXXXXXXXXXXXXXXXXXXXXXX  XXXXXXXXXXXXXXXXXX",
"XXXXXXXXXXXXXXXXXX  XXXXXXXXXXXXXXXXXXXXXXXX  XXXXXXXXXXXXXXXXXX",
"XXXXXXXXXXXXXXXXXX  XXXXXXXXXXXXXXXXXXXXXXXX  XXXXXXXXXXXXXXXXXX",
"..................  ......................  ....................",
"..................  ......................  ....................",
"..................  ......................  ....................",
"..................  ......................  ....................",
"..................  ......................  ....................",
"..................  ......................  ....................",
"........................................    ....................",
"........................................    ....................",
"........................................  ......................",
"........................................  ......................",
"................................................................",
"................................................................",
"................................................................",
"................................................................",
"................................................................",
"................................................................"
};
