/* XPM */
static char *ca4df0e4c4b04659a6395fa1c02c95b3VwQrMyEH0t1Iyqb1[] = {
/* columns rows colors chars-per-pixel */
"64 64 4 1 ",
"  c black",
". c #127C00",
"X c #26FF00",
"o c #EAFF00",
/* pixels */
"XXXXXXXXXXXXXXXXXXXXXXXXXXXXXXXXXXXXXXXXXXXXXXXXXXXXXXXXXXXXXXXX",
"XXXXXXXXXXXXXXXXXXXXXXXXXXXXXXXXXXXXXXXXXXXXXXXXXXXXXXXXXXXXXXXX",
"XXXXXXXXXXXXXXXXXXXXXXXXXXXXXXXXXXXXXXXXXX    XXXXXXXXXXXXXXXXXX",
"XXXXXXXXXXXXXXXXXXXXXXXXXXXXXXXXXXXXXXXXXX    XXXXXXXXXXXXXXXXXX",
"XXXXXXXXXXXXXXXXXXXXXXXXXXXXXXXXXXXXXXXXXXXX  XXXXXXXXXXXXXXXXXX",
"XXXXXXXXXXXXXXXXXXXXXXXXXXXXXXXXXXXXXXXXXXXX  XXXXXXXXXXXXXXXXXX",
"XXXXXXXXXXXXXXXXXXXXXXXXXXXXXXXXXXXXXXXXXXXX  XXXXXXXXXXXXXXXXXX",
"XXXXXXXXXXXXXXXXXXXXXXXXXXXXXXXXXXXXXXXXXXXX  XXXXXXXXXXXXXXXXXX",
"XXXXXXXX  XXXXXXXXXXXXXXXXXXXXXXXXXXXXXXXXXX  XXXXXXXXXXXXXXXXXX",
"XXXXXXXX  XXXXXXXXXXXXXXXXXXXXXXXXXXXXXXXXXX  XXXXXXXXXXXXXXXXXX",
"XXXXXXXX    XXXXXXXXXXXXXX  XXXXXXXXXXXXXXXX  XXXXXXXXXXXXXXXXXX",
"XXXXXXXX    XXXXXXXXXXXXXX  XXXXXXXXXXXXXXXX  XXXXXXXXXXXXXXXXXX",
"XXXXXXXXXX  XXXXXXXXXXXXXX    XXXXXXXXXXXXXXXXXXXXXXXXXXXXXXXXXX",
"XXXXXXXXXX  XXXXXXXXXXXXXX    XXXXXXXXXXXXXXXXXXXXXXXXXXXXXXXXXX",
"XXXXXXXXXX  XXXXXXXXXXXXXXXX  XXXXXXXXXXXXXXXXXXXX  XXXXXXXXXXXX",
"XXXXXXXXXX  XXXXXXXXXXXXXXXX  XXXXXXXXXXXXXXXXXXXX  XXXXXXXXXXXX",
"......      ................  ....................  ............",
"......      ................  ....................  ............",
"......  ....................  ......        ......  ............",
"......  ....................  ......        ......  ............",
"..........................    ....  oooooooo  ....  ............",
"..........................    ....  oooooooo  ....  ............",
"..........................  ....  oooooooooooo    ..............",
"..........................  ....  oooooooooooo    ..............",
"..........................  ..  oooooo....oooooo  ..............",
"..........................  ..  oooooo....oooooo  ..............",
"......                        oooooo........oooooo  ............",
"......                        oooooo........oooooo  ............",
"......  oooooooooooooooooooooooooo....  ......oooooo  ..........",
"......  oooooooooooooooooooooooooo....  ......oooooo  ..........",
"......  oooooooooooooooooooooooo......  ........oooo  ..........",
"......  oooooooooooooooooooooooo......  ........oooo  ..........",
"XXXXXX  oooo    oooo        ooooXXXXXX  XXXXXXXXoooo  XXXXXXXXXX",
"XXXXXX  oooo    oooo        ooooXXXXXX  XXXXXXXXoooo  XXXXXXXXXX",
"XXXXXX  oooo    oooo  XXXX  ooooooXXXX  XXXXXXoooooo  XXXXXXXXXX",
"XXXXXX  oooo    oooo  XXXX  ooooooXXXX  XXXXXXoooooo  XXXXXXXXXX",
"XXXXXX                XXXXXX  ooooooXX  XXXXoooooo  XXXXXXXXXXXX",
"XXXXXX                XXXXXX  ooooooXX  XXXXoooooo  XXXXXXXXXXXX",
"XXXXXXXXXX    XXXXXXXXXXXXXXXX  oooooo  XXoooooo  XXXXXXXXXXXXXX",
"XXXXXXXXXX    XXXXXXXXXXXXXXXX  oooooo  XXoooooo  XXXXXXXXXXXXXX",
"XXXXXXXXXX  XXXXXXXX    XXXXXXXX  oooooooooooo  XXXXXXXXXXXXXXXX",
"XXXXXXXXXX  XXXXXXXX    XXXXXXXX  oooooooooooo  XXXXXXXXXXXXXXXX",
"XXXXXXXXXXXXXXXXXX    XXXXXXXXXXXX  oooooooo  XXXXXXXXXXXXXXXXXX",
"XXXXXXXXXXXXXXXXXX    XXXXXXXXXXXX  oooooooo  XXXXXXXXXXXXXXXXXX",
"XXXXXXXXXXXXXXXXXX  XXXXXXXXXXXXXXXX          XXXXXXXXXXXXXXXXXX",
"XXXXXXXXXXXXXXXXXX  XXXXXXXXXXXXXXXX          XXXXXXXXXXXXXXXXXX",
"XXXXXXXXXXXXXXXXXX  XXXXXXXXXXXXXXXXXXXXXXXX  XXXXXXXXXXXXXXXXXX",
"XXXXXXXXXXXXXXXXXX  XXXXXXXXXXXXXXXXXXXXXXXX  XXXXXXXXXXXXXXXXXX",
"..................  ......................  ....................",
"..................  ......................  ....................",
"..................  ......................  ....................",
"..................  ......................  ....................",
"..................  ......................  ....................",
"..................  ......................  ....................",
"........................................    ....................",
"........................................    ....................",
"........................................  ......................",
"........................................  ......................",
"................................................................",
"................................................................",
"................................................................",
"................................................................",
"................................................................",
"................................................................"
};
