/* XPM */
static char *result[] = {
/* columns rows colors chars-per-pixel */
"64 64 9 1 ",
"  c black",
". c #127C00",
"X c #BB0C00",
"o c #912D04",
"O c #FF2700",
"+ c #26FF00",
"@ c #E6E403",
"# c #CFBC7A",
"$ c #007DBB",
/* pixels */
"++++++++++++++++++++++++++++++++++++++++++++++++++++++++++++++++",
"++++++++++++++++++++++++++++++++++++++++++++++++++++++++++++++++",
"++++++++++++++++++++++++++++++++++++++++++    ++++++++++++++++++",
"++++++++++++++++++++++++++++++++++++++++++    ++++++++++++++++++",
"++++++++++++++++++++++++++++++++++++++++++++  ++++++++++++++++++",
"++++++++++++++++++++OOOOOOOOOOOOOOOOOOOOO+++  ++++++++++++++++++",
"++++++++++++++++++++OOOOOOOOOOOOOOOOOOOOO+++  ++++++++++++++++++",
"++++++++++++++++++++OOOOOOOOOOOOOOOOOOOOO+++  ++++++++++++++++++",
"++++++++  +++++++OOOOOOOOOOOOOOOOOOOOOOOOOOOOOO+++++++++++++++++",
"++++++++  +++++++OOOOOOOOOOOOOOOOOOOOOOOOOOOOOO+++++++++++++++++",
"++++++++    +++++OOOOOOOOOOOOOOOOOOOOOOOOOOOOOO+++++++++++++++++",
"++++++++    +++++ooooooooo#########   ###+++  ++++++++++++++++++",
"++++++++++  +++++ooooooooo#########   ###+++++++++++++++++++++++",
"++++++++++  +++++ooooooooo#########   ###+++++++++++++++++++++++",
"++++++++++  ++ooo###ooo############   #########+++  ++++++++++++",
"++++++++++  ++ooo###ooo############   #########+++  ++++++++++++",
"......      ..ooo###ooo############   #########...  ............",
"......      ..ooo###oooooo############   #########  ............",
"......  ......ooo###oooooo############   #########  ............",
"......  ......ooo###oooooo############   #########  ............",
"..............oooooo###############            ...  ............",
"..............oooooo###############            ...  ............",
"..............oooooo###############            .  ..............",
"....................########################....  ..............",
"....................########################....................",
"....................########################....................",
".................OOOOOO$$$OOOOOOOOOOOO..........................",
".................OOOOOO$$$OOOOOOOOOOOO..........................",
"............  ...OOOOOO$$$OOOOOOOOOOOO  ........................",
"............  OOOOOOOOO$$$OOOOOO$$$OOOOOOOOO....................",
"............  OOOOOOOOO$$$OOOOOO$$$OOOOOOOOO....................",
"............  OOOOOOOOO$$$OOOOOO$$$OOOOOOOOO....................",
"+++++++++++OOOOOOOOOOOO$$$$$$$$$$$$OOOOOOOOOOOO+++++++++++++++++",
"+++++++++++OOOOOOOOOOOO$$$$$$$$$$$$OOOOOOOOOOOO+++++++++++++++++",
"+++++++++++OOOOOOOOOOOO$$$$$$$$$$$$OOOOOOOOOOOO+++++++++++++++++",
"+++++++++++OOOOOOOOO$$$@@@$$$$$$@@@$$$OOO######+++++++++++++++++",
"+++++++++++######OOO$$$@@@$$$$$$@@@$$$OOO######+++++++++++++++++",
"+++++++++++######OOO$$$@@@$$$$$$@@@$$$OOO######+++++++++++++++++",
"++++++++++ #########$$$$$$$$$$$$$$$$$$#########+++++++++++++++++",
"++++++++++ #########$$$$$$$$$$$$$$$$$$#########+++++++++++++++++",
"++++++++++ #########$$$$$$$$$$$$$$$$$$#########+++++++++++++++++",
"++++++++++ ######$$$$$$$$$$$$$$$$$$$$$$$$######+++++++++++++++++",
"+++++++++++######$$$$$$$$$$$$$$$$$$$$$$$$######+++++++++++++++++",
"+++++++++++######$$$$$$$$$$$$$$$$$$$$$$$$######+++++++++++++++++",
"+++++++++++######$$$$$$$$$$$$$$$$$$$$$$$$+++  ++++++++++++++++++",
"+++++++++++++++++$$$$$$$$$$$$$$$$$$$$$$$$+++  ++++++++++++++++++",
"+++++++++++++++++$$$$$$$$$$$$$$$$$$$$$$$$+++  ++++++++++++++++++",
"+++++++++++++++++$$$$$$$$$++++++$$$$$$$$$+++  ++++++++++++++++++",
".................$$$$$$$$$......$$$$$$$$$.  ....................",
".................$$$$$$$$$......$$$$$$$$$.  ....................",
"..............XXXXXXXXX............XXXXXXXXX....................",
"..............XXXXXXXXX............XXXXXXXXX....................",
"..............XXXXXXXXX............XXXXXXXXX....................",
"...........XXXXXXXXXXXX............XXXXXXXXXXXX.................",
"...........XXXXXXXXXXXX............XXXXXXXXXXXX.................",
"...........XXXXXXXXXXXX............XXXXXXXXXXXX.................",
"........................................  ......................",
"........................................  ......................",
"................................................................",
"................................................................",
"................................................................",
"................................................................",
"................................................................",
"................................................................"
};
