/* XPM */
static char *_65af1d0366b4d1ca628f74a38d4986ajFA6LcU08cA7YTFh[] = {
/* columns rows colors chars-per-pixel */
"64 64 3 1 ",
"  c black",
". c gray28",
"X c #656565",
/* pixels */
"    XXXX..XXXXXXXXXXXXXX    XXXXXXXXXXXXXXXXXXXX    XXXXXXXXXXXX",
"    XXXX..XXXXXXXXXXXXXX    XXXXXXXXXXXXXXXXXXXX    XXXXXXXXXXXX",
"    XXXXXXXXXXXXXXXXXX..    XXXXXX..XXXXXXXXXXXX    XXXXXXXXXXXX",
"    XXXXXXXXXXXXXXXXXX..    XXXXXX..XXXXXXXXXXXX    XXXXXXXXXXXX",
"    XXXXXXXXXX..XXXXXXXX    ..XXXXXXXXXXXXXXXXXX    ....XX..XXXX",
"    XXXXXXXXXX..XXXXXXXX    ..XXXXXXXXXXXXXXXXXX    ....XX..XXXX",
"    XX..XXXXXXXXXXXXXXXX    XXXXXXXXXXXXXXXXXXXX    XXXXXXXXXXXX",
"    XX..XXXXXXXXXXXXXXXX    XXXXXXXXXXXXXXXXXXXX    XXXXXXXXXXXX",
"                                                                ",
"                                                                ",
"                                                                ",
"                                                                ",
"XXXXXXXXXXXX    XXXXXXXXXXXXXXXXXX    XXXXXXXXXXXXXX    XXXXXXXX",
"XXXXXXXXXXXX    XXXXXXXXXXXXXXXXXX    XXXXXXXXXXXXXX    XXXXXXXX",
"XXXXXX..XXXX    XXXXXXXX..XXXXXXXX    XXXXXX..XXXXXX    XXXXXXXX",
"XXXXXX..XXXX    XXXXXXXX..XXXXXXXX    XXXXXX..XXXXXX    XXXXXXXX",
"XXXXXXXXXXXX    XXXXXXXXXXXXXXXX..    XXXXXXXXXXXXXX    XX..XXXX",
"XXXXXXXXXXXX    XXXXXXXXXXXXXXXX..    XXXXXXXXXXXXXX    XX..XXXX",
"XXXXXXXXXXXX    XXXXXXXX..XXXXXXXX    XXXXXXXX....XX    XXXXXXXX",
"XXXXXXXXXXXX    XXXXXXXX..XXXXXXXX    XXXXXXXX....XX    XXXXXXXX",
"                                                                ",
"                                                                ",
"                                                                ",
"                                                                ",
"    XXXXXXXXXXXXXXXXXXXX    XXXXXXXXXXXXXXXXXX    XXXXXXXXXXXXXX",
"    XXXXXXXXXXXXXXXXXXXX    XXXXXXXXXXXXXXXXXX    XXXXXXXXXXXXXX",
"    ..XXXXXXXXXXXXXXXXXX    XXXXXX..XXXXXXXXXX    XXXXXX..XXXXXX",
"    ..XXXXXXXXXXXXXXXXXX    XXXXXX..XXXXXXXXXX    XXXXXX..XXXXXX",
"    XXXXXX..XX..XXXXXXXX    XXXXXXXXXXXXXX..XX    XXXXXXXXXXXXXX",
"    XXXXXX..XX..XXXXXXXX    XXXXXXXXXXXXXX..XX    XXXXXXXXXXXXXX",
"    XXXXXXXXXXXXXXXX..XX    XXXX..XXXXXXXXXXXX    ..XXXXXXXXXXXX",
"    XXXXXXXXXXXXXXXX..XX    XXXX..XXXXXXXXXXXX    ..XXXXXXXXXXXX",
"    ..XXXXXXXXXXXXXXXXXX    XXXXXXXXXXXXXXXXXX    XXXXXXXX..XXXX",
"    ..XXXXXXXXXXXXXXXXXX    XXXXXXXXXXXXXXXXXX    XXXXXXXX..XXXX",
"              ..                                                ",
"              ..                                                ",
"                                                                ",
"                                                                ",
"XXXXXXXXXXXX    XXXXXXXXXXXXXXXXXX      XXXXXXXXXX..XXXXXXXXXXXX",
"XXXXXXXXXXXX    XXXXXXXXXXXXXXXXXX      XXXXXXXXXX..XXXXXXXXXXXX",
"XXXXXXXXXXXX    XXXXXX..XXXXXXXXXX      XXXXXXXXXXXXXXXXXXXXXXXX",
"XXXXXXXXXXXX    XXXXXX..XXXXXXXXXX      XXXXXXXXXXXXXXXXXXXXXXXX",
"XXXXXXXX..XX    XXXXXXXXXXXXXXXXXX..    XXXXXXXXXXXXXXXXXXXXXXXX",
"XXXXXXXX..XX    XXXXXXXXXXXXXXXXXX..    XXXXXXXXXXXXXXXXXXXXXXXX",
"XXXXXXXXXXXX    ..XXXXXXXXXXXXXXXXXX    XXXX..XXXXXXXXXXXXXXXXXX",
"XXXXXXXXXXXX    ..XXXXXXXXXXXXXXXXXX    XXXX..XXXXXXXXXXXXXXXXXX",
"                                                                ",
"                                                                ",
"                                                                ",
"                                                                ",
"XXXX    XXXXXXXXXXXXXXXX    XXXXXXXXXXXXXXXXXXXX    XXXXXXXXXXXX",
"XXXX    XXXXXXXXXXXXXXXX    XXXXXXXXXXXXXXXXXXXX    XXXXXXXXXXXX",
"..XX    XXXX..XXXXXXXXXX    XXXXXXXXXXXX..XXXXXX    XXXXXXXXXXXX",
"..XX    XXXX..XXXXXXXXXX    XXXXXXXXXXXX..XXXXXX    XXXXXXXXXXXX",
"XXXX    XXXX..XX..XXXXXX    ..XXXXXXXXXXXXXXXXXX    XXXXXX..XXXX",
"XXXX    XXXX..XX..XXXXXX    ..XXXXXXXXXXXXXXXXXX    XXXXXX..XXXX",
"XXXX    XXXXXXXXXXXXXXXX    XXXXXXXXXXXX..XXXXXX    XXXX..XXXXXX",
"XXXX    XXXXXXXXXXXXXXXX    XXXXXXXXXXXX..XXXXXX    XXXX..XXXXXX",
"XXXX    XXXXXXXXXXXXXXXX    XXXXXXXXXXXXXXXXXXXX    XXXXXXXXXXXX",
"XXXX    XXXXXXXXXXXXXXXX    XXXXXXXXXXXXXXXXXXXX    XXXXXXXXXXXX",
"                                                                ",
"                                                                ",
"                                                                ",
"                                                                "
};
